# xmcd CD database file
#
# Track frame offsets:
#	150
#	12497
#	23982
#	35387
#	47672
#	61140
#	72095
#	85780
#	105852
#	119905
#	129517
#	142512
#	151905
#	159465
#	168352
#	180517
#	201285
#
# Disc length: 2826 seconds
#
# Revision: 0
# Processed by: cddbd v1.5.2PL0 Copyright (c) Steve Scherf et al.
# Submitted via: CDex 1.70beta2
#
DISCID=d40b0811
DTITLE=ￄkta Spelm￤n - Swedish Fiddle Music
DYEAR=2002
DGENRE=New Age
TTITLE0=Vals av Anders S￤bb
TTITLE1=Polska mit tr￶tthet
TTITLE2=Polska av Viksta Lasse
TTITLE3=Trapp Valsen
TTITLE4=ￖstb￶rka Visa
TTITLE5=Ekopolskan
TTITLE6=G￥ngl￥t av Elg Anders
TTITLE7=Vals av Hans B￶rtas
TTITLE8=G￥ngl￥t av Selim Bengtlars
TTITLE9=M￥rtamosgubben
TTITLE10=Polska efter Perols Gudmund
TTITLE11=Brudpolska
TTITLE12=Schottis av Tommy Runesson
TTITLE13=Polska av Karl Karlstr￶m
TTITLE14=Kungs Marschen
TTITLE15=Hymn Set
TTITLE16=Jubileums Vals
EXTD=YEAR: 2002
EXTT0=
EXTT1=
EXTT2=
EXTT3=
EXTT4=
EXTT5=
EXTT6=
EXTT7=
EXTT8=
EXTT9=
EXTT10=
EXTT11=
EXTT12=
EXTT13=
EXTT14=
EXTT15=
EXTT16=
PLAYORDER=
